<svg width="23" height="24" viewBox="0 0 23 24" fill="none" xmlns="http://www.w3.org/2000/svg">
<path d="M2.65385 0C1.19561 0 0 1.20733 0 2.67985V16.9724C0 18.4449 1.19561 19.6522 2.65385 19.6522H5.30769V24L11.7695 19.6522H20.3462C21.8044 19.6522 23 18.4449 23 16.9724V2.67985C23 1.20733 21.8044 0 20.3462 0H2.65385ZM2.65385 1.78657H20.3462C20.8438 1.78657 21.2308 2.17738 21.2308 2.67985V16.9724C21.2308 17.4748 20.8438 17.8657 20.3462 17.8657H11.2305L7.07692 20.6641V17.8657H2.65385C2.15625 17.8657 1.76923 17.4748 1.76923 16.9724V2.67985C1.76923 2.17738 2.15625 1.78657 2.65385 1.78657Z" fill="#303030"/>
</svg>
