<svg width="21" height="22" viewBox="0 0 21 22" fill="none" xmlns="http://www.w3.org/2000/svg">
<path d="M14.2847 0C13.195 0 12.2694 0.713942 11.9214 1.69231H0V3.38462H11.9214C12.2694 4.36298 13.195 5.07692 14.2847 5.07692C15.3745 5.07692 16.3001 4.36298 16.648 3.38462H20.1667V1.69231H16.648C16.3001 0.713942 15.3745 0 14.2847 0ZM14.2847 1.69231C14.7574 1.69231 15.125 2.0625 15.125 2.53846C15.125 3.01442 14.7574 3.38462 14.2847 3.38462C13.8121 3.38462 13.4444 3.01442 13.4444 2.53846C13.4444 2.0625 13.8121 1.69231 14.2847 1.69231ZM5.88195 8.46154C4.79221 8.46154 3.86659 9.17548 3.51866 10.1538H0V11.8462H3.51866C3.86659 12.8245 4.79221 13.5385 5.88195 13.5385C6.97168 13.5385 7.8973 12.8245 8.24523 11.8462H20.1667V10.1538H8.24523C7.8973 9.17548 6.97168 8.46154 5.88195 8.46154ZM5.88195 10.1538C6.3546 10.1538 6.72222 10.524 6.72222 11C6.72222 11.476 6.3546 11.8462 5.88195 11.8462C5.40929 11.8462 5.04167 11.476 5.04167 11C5.04167 10.524 5.40929 10.1538 5.88195 10.1538ZM14.2847 16.9231C13.195 16.9231 12.2694 17.637 11.9214 18.6154H0V20.3077H11.9214C12.2694 21.2861 13.195 22 14.2847 22C15.3745 22 16.3001 21.2861 16.648 20.3077H20.1667V18.6154H16.648C16.3001 17.637 15.3745 16.9231 14.2847 16.9231ZM14.2847 18.6154C14.7574 18.6154 15.125 18.9856 15.125 19.4615C15.125 19.9375 14.7574 20.3077 14.2847 20.3077C13.8121 20.3077 13.4444 19.9375 13.4444 19.4615C13.4444 18.9856 13.8121 18.6154 14.2847 18.6154Z" fill="#303030"/>
</svg>
