<svg width="26" height="24" viewBox="0 0 26 24" fill="none" xmlns="http://www.w3.org/2000/svg">
<path d="M7.38462 0C3.31713 0 0 3.31813 0 7.38684C0 10.9264 1.8852 13.104 4.24399 15.1344C6.60278 17.1647 9.49364 19.2276 12.1731 22.9576L12.9231 24L13.6731 22.9576C16.3525 19.2276 19.2434 17.1647 21.6022 15.1344C23.961 13.104 25.8462 10.9264 25.8462 7.38684C25.8462 3.31813 22.529 0 18.4615 0C16.1275 0 14.2668 1.22851 12.9231 2.70514C11.5794 1.22851 9.71867 0 7.38462 0ZM7.38462 1.84671C9.38924 1.84671 11.1703 3.05743 12.1731 4.46168L12.9231 5.51127L13.6731 4.46168C14.6758 3.05743 16.4569 1.84671 18.4615 1.84671C21.5313 1.84671 24 4.31616 24 7.38684C24 10.3108 22.6544 11.7925 20.3978 13.7349C18.3364 15.5093 15.5668 17.6742 12.9231 21.0424C10.2794 17.6742 7.50976 15.5093 5.44832 13.7349C3.19172 11.7925 1.84615 10.3108 1.84615 7.38684C1.84615 4.31616 4.31487 1.84671 7.38462 1.84671Z" fill="#303030"/>
</svg>
