<svg width="30" height="24" viewBox="0 0 30 24" fill="none" xmlns="http://www.w3.org/2000/svg">
<path d="M3.375 0C1.52437 0 0 1.52437 0 3.375V20.625C0 22.4756 1.52437 24 3.375 24H26.625C28.4756 24 30 22.4756 30 20.625V3.375C30 1.52437 28.4756 0 26.625 0H3.375ZM3.375 2.25H26.625C27.2599 2.25 27.75 2.74013 27.75 3.375V20.625C27.75 21.2599 27.2599 21.75 26.625 21.75H3.375C2.74013 21.75 2.25 21.2599 2.25 20.625V3.375C2.25 2.74013 2.74013 2.25 3.375 2.25ZM9 6.75C8.40326 6.75 7.83097 6.98705 7.40901 7.40901C6.98705 7.83097 6.75 8.40326 6.75 9C6.75 9.59674 6.98705 10.169 7.40901 10.591C7.83097 11.0129 8.40326 11.25 9 11.25C9.59674 11.25 10.169 11.0129 10.591 10.591C11.0129 10.169 11.25 9.59674 11.25 9C11.25 8.40326 11.0129 7.83097 10.591 7.40901C10.169 6.98705 9.59674 6.75 9 6.75ZM16.875 8.25C16.7259 8.24789 16.5779 8.27543 16.4396 8.33102C16.3012 8.38661 16.1753 8.46915 16.0692 8.57382C15.963 8.6785 15.8787 8.80323 15.8211 8.94077C15.7636 9.0783 15.734 9.22591 15.734 9.375C15.734 9.52409 15.7636 9.6717 15.8211 9.80923C15.8787 9.94677 15.963 10.0715 16.0692 10.1762C16.1753 10.2809 16.3012 10.3634 16.4396 10.419C16.5779 10.4746 16.7259 10.5021 16.875 10.5H23.625C23.7741 10.5021 23.9221 10.4746 24.0604 10.419C24.1988 10.3634 24.3247 10.2809 24.4308 10.1762C24.537 10.0715 24.6213 9.94677 24.6788 9.80923C24.7364 9.6717 24.766 9.52409 24.766 9.375C24.766 9.22591 24.7364 9.0783 24.6788 8.94077C24.6213 8.80323 24.537 8.6785 24.4308 8.57382C24.3247 8.46915 24.1988 8.38661 24.0604 8.33102C23.9221 8.27543 23.7741 8.24789 23.625 8.25H16.875ZM6.375 12.75C5.754 12.75 5.25 13.254 5.25 13.875C5.25 15 5.25029 17.25 8.92529 17.25H9.07471C12.7497 17.25 12.75 15 12.75 13.875C12.75 13.254 12.246 12.75 11.625 12.75H6.375ZM16.875 13.5C16.7259 13.4979 16.5779 13.5254 16.4396 13.581C16.3012 13.6366 16.1753 13.7191 16.0692 13.8238C15.963 13.9285 15.8787 14.0532 15.8211 14.1908C15.7636 14.3283 15.734 14.4759 15.734 14.625C15.734 14.7741 15.7636 14.9217 15.8211 15.0592C15.8787 15.1968 15.963 15.3215 16.0692 15.4262C16.1753 15.5309 16.3012 15.6134 16.4396 15.669C16.5779 15.7246 16.7259 15.7521 16.875 15.75H23.625C23.7741 15.7521 23.9221 15.7246 24.0604 15.669C24.1988 15.6134 24.3247 15.5309 24.4308 15.4262C24.537 15.3215 24.6213 15.1968 24.6788 15.0592C24.7364 14.9217 24.766 14.7741 24.766 14.625C24.766 14.4759 24.7364 14.3283 24.6788 14.1908C24.6213 14.0532 24.537 13.9285 24.4308 13.8238C24.3247 13.7191 24.1988 13.6366 24.0604 13.581C23.9221 13.5254 23.7741 13.4979 23.625 13.5H16.875Z" fill="#303030"/>
</svg>
