<svg width="24" height="24" viewBox="0 0 24 24" fill="none" xmlns="http://www.w3.org/2000/svg">
<path d="M3 0C1.355 0 0 1.355 0 3V7.66667C0 9.31167 1.355 10.6667 3 10.6667H7.66667C9.31167 10.6667 10.6667 9.31167 10.6667 7.66667V3C10.6667 1.355 9.31167 0 7.66667 0H3ZM16.3333 0C14.6883 0 13.3333 1.355 13.3333 3V7.66667C13.3333 9.31167 14.6883 10.6667 16.3333 10.6667H21C22.645 10.6667 24 9.31167 24 7.66667V3C24 1.355 22.645 0 21 0H16.3333ZM3 2H7.66667C8.231 2 8.66667 2.43567 8.66667 3V7.66667C8.66667 8.231 8.231 8.66667 7.66667 8.66667H3C2.43567 8.66667 2 8.231 2 7.66667V3C2 2.43567 2.43567 2 3 2ZM16.3333 2H21C21.5643 2 22 2.43567 22 3V7.66667C22 8.231 21.5643 8.66667 21 8.66667H16.3333C15.769 8.66667 15.3333 8.231 15.3333 7.66667V3C15.3333 2.43567 15.769 2 16.3333 2ZM4 4V6.66667H6.66667V4H4ZM17.3333 4V6.66667H20V4H17.3333ZM3 13.3333C1.355 13.3333 0 14.6883 0 16.3333V21C0 22.645 1.355 24 3 24H7.66667C9.31167 24 10.6667 22.645 10.6667 21V16.3333C10.6667 14.6883 9.31167 13.3333 7.66667 13.3333H3ZM13.3333 13.3333V17H17V13.3333H13.3333ZM17 17V20.3333H20.3333V17H17ZM20.3333 17H24V13.3333H20.3333V17ZM20.3333 20.3333V24H24V20.3333H20.3333ZM17 20.3333H13.3333V24H17V20.3333ZM3 15.3333H7.66667C8.231 15.3333 8.66667 15.769 8.66667 16.3333V21C8.66667 21.5643 8.231 22 7.66667 22H3C2.43567 22 2 21.5643 2 21V16.3333C2 15.769 2.43567 15.3333 3 15.3333ZM4 17.3333V20H6.66667V17.3333H4Z" fill="#808080"/>
</svg>
