<svg width="24" height="24" viewBox="0 0 24 24" fill="none" xmlns="http://www.w3.org/2000/svg">
<path d="M15.6773 0C11.0897 0 7.3546 3.73397 7.3546 8.32019C7.3546 10.2775 8.06261 12.0614 9.20409 13.4842L0 22.6855L1.30042 24L10.5117 14.7915C11.935 15.9326 13.7194 16.6404 15.6773 16.6404C20.2649 16.6404 24 12.9064 24 8.32019C24 3.73397 20.2649 0 15.6773 0ZM15.6773 1.84893C19.2607 1.84893 22.1505 4.73789 22.1505 8.32019C22.1505 11.9025 19.2607 14.7915 15.6773 14.7915C12.0939 14.7915 9.20409 11.9025 9.20409 8.32019C9.20409 4.73789 12.0939 1.84893 15.6773 1.84893Z" fill="#303030"/>
</svg>
