<svg width="24" height="24" viewBox="0 0 24 24" fill="none" xmlns="http://www.w3.org/2000/svg">
<path d="M12 0C5.38702 0 0 5.38702 0 12C0 18.613 5.38702 24 12 24C18.613 24 24 18.613 24 12C24 5.38702 18.613 0 12 0ZM12 1.84615C17.6178 1.84615 22.1538 6.38221 22.1538 12C22.1538 14.4736 21.274 16.7308 19.8173 18.4904C19.024 16.2404 17.3077 14.4303 15.1154 13.5361C16.0312 12.6923 16.6154 11.488 16.6154 10.1538C16.6154 7.61538 14.5385 5.53846 12 5.53846C9.46154 5.53846 7.38462 7.61538 7.38462 10.1538C7.38462 11.488 7.96875 12.6923 8.88462 13.5361C6.69231 14.4303 4.98317 16.2404 4.1899 18.4904C2.72596 16.7308 1.84615 14.4736 1.84615 12C1.84615 6.38221 6.38221 1.84615 12 1.84615ZM12 7.38462C13.5433 7.38462 14.7692 8.61058 14.7692 10.1538C14.7692 11.6971 13.5433 12.9231 12 12.9231C10.4567 12.9231 9.23077 11.6971 9.23077 10.1538C9.23077 8.61058 10.4567 7.38462 12 7.38462ZM12 14.7692C15.137 14.7692 17.7115 16.9976 18.3101 19.9543C16.5721 21.3317 14.387 22.1538 12 22.1538C9.61298 22.1538 7.42789 21.3317 5.69712 19.9543C6.28846 16.9976 8.86298 14.7692 12 14.7692Z" fill="#303030"/>
</svg>
